<?xml version="1.0" standalone="no"?>
<!DOCTYPE svg PUBLIC "-//W3C//DTD SVG 20010904//EN"
 "http://www.w3.org/TR/2001/REC-SVG-20010904/DTD/svg10.dtd">
<svg version="1.0" xmlns="http://www.w3.org/2000/svg"
 width="1200.000000pt" height="1800.000000pt" viewBox="0 0 1200.000000 1800.000000"
 preserveAspectRatio="xMidYMid meet">

<g transform="translate(0.000000,1800.000000) scale(0.100000,-0.100000)"
fill="#000000" stroke="none">
<path d="M10 9000 l0 -9000 5990 0 5990 0 0 9000 0 9000 -5990 0 -5990 0 0
-9000z m11885 1800 l0 -7105 -3345 -6 c-3041 -6 -3351 -8 -3413 -22 -138 -34
-235 -102 -296 -209 l-31 -53 0 593 0 592 -225 0 -225 0 0 218 0 218 -95 27
c-350 98 -681 289 -950 548 l-102 99 -193 -111 c-106 -61 -196 -107 -200 -102
-25 26 -490 847 -483 854 4 4 91 56 193 114 102 59 186 108 187 109 1 1 -7 35
-18 76 -96 366 -97 781 -2 1144 21 82 23 100 12 107 -8 5 -96 57 -196 115
-101 58 -183 109 -182 112 1 15 486 846 495 849 5 2 96 -46 202 -107 l194
-109 91 89 c213 208 467 374 732 478 103 41 120 46 243 82 l72 21 0 224 0 225
225 0 225 0 0 883 1 882 1470 743 c809 409 1473 742 1475 740 3 -4 -1912
-3761 -2022 -3965 l-55 -103 46 -22 c28 -14 48 -18 54 -12 14 15 2214 4334
2210 4339 -3 2 -637 -317 -1409 -709 -1531 -776 -3748 -1903 -4090 -2078 -118
-61 -208 -104 -200 -96 8 8 580 382 1270 830 690 449 2080 1352 3089 2007
1008 655 1835 1190 1836 1189 2 -2 -4 -37 -13 -78 -47 -235 108 -487 346 -560
70 -22 203 -27 261 -10 19 5 36 8 39 6 2 -3 -28 -53 -66 -113 -138 -217 -2970
-4637 -3167 -4943 -111 -173 -379 -592 -595 -930 -216 -338 -397 -619 -402
-625 -14 -14 46 105 488 971 217 424 394 773 394 776 0 3 -19 13 -41 24 -40
18 -42 18 -55 0 -7 -11 -204 -392 -436 -847 l-423 -828 -3 936 -2 936 -83 -6
c-246 -19 -504 -91 -732 -204 -921 -458 -1343 -1545 -969 -2501 280 -718 936
-1203 1712 -1266 l72 -6 0 837 0 837 71 126 c57 99 796 1260 1216 1910 41 63
302 471 581 905 278 435 996 1555 1595 2490 600 935 1110 1733 1133 1774 48
83 64 142 64 239 0 137 -47 249 -145 347 -100 100 -210 145 -356 145 -91 0
-180 -25 -259 -72 -30 -19 -916 -594 -1969 -1278 -1053 -685 -1918 -1246
-1923 -1248 -4 -2 -8 1272 -8 2832 l0 2836 3543 -2 3542 -3 0 -7105z m-9333
5633 l116 -358 384 -5 383 -5 -75 -55 c-41 -31 -180 -131 -307 -224 -128 -92
-233 -171 -233 -174 0 -4 52 -166 115 -361 63 -195 113 -356 111 -358 -2 -2
-140 95 -307 217 -166 121 -308 219 -315 216 -7 -3 -146 -102 -309 -221 -163
-119 -299 -215 -301 -212 -2 2 47 164 111 359 63 195 115 357 115 359 0 3
-137 104 -305 225 -167 120 -304 222 -305 226 0 4 172 9 382 10 l382 3 115
358 c64 196 118 357 121 357 4 0 58 -161 122 -357z m6572 -1731 c90 -42 149
-100 193 -188 120 -244 -29 -530 -299 -573 -312 -50 -557 275 -425 563 28 61
101 144 154 177 109 67 260 76 377 21z m-4891 -11117 c105 -18 227 -61 303
-106 127 -75 232 -213 250 -329 l7 -44 17 85 c33 159 124 290 244 349 130 64
-121 60 3514 60 l3312 0 0 -1755 0 -1755 -5895 0 -5895 0 0 1755 0 1755 2029
0 c1749 0 2040 -2 2114 -15z"/>
<path d="M9547 16810 c-96 -25 -200 -107 -233 -185 -11 -28 -14 -108 -14 -417
0 -352 2 -386 19 -424 27 -59 84 -112 160 -148 61 -29 74 -31 171 -31 94 0
111 3 165 28 69 32 127 84 158 142 22 39 22 49 22 435 0 387 0 396 -22 436
-29 54 -93 111 -161 141 -61 29 -196 40 -265 23z m168 -227 c12 -15 14 -86 15
-376 l0 -358 -25 -24 c-24 -25 -65 -32 -100 -19 -42 16 -45 46 -45 406 0 370
1 378 53 397 29 11 86 -3 102 -26z"/>
<path d="M10371 16810 c-98 -21 -182 -79 -229 -159 l-27 -46 0 -395 c0 -387 0
-396 22 -436 75 -141 283 -212 452 -154 105 35 179 100 210 183 6 16 11 84 11
153 l0 124 -130 0 -130 0 0 -115 c0 -110 -1 -117 -25 -140 -36 -37 -86 -34
-119 6 l-26 31 0 339 c0 356 3 387 45 403 31 12 73 6 96 -13 22 -18 24 -28 27
-125 l4 -106 129 0 129 0 0 106 c0 59 -5 125 -12 148 -18 61 -108 147 -183
175 -67 26 -177 35 -244 21z"/>
<path d="M6098 16558 l-3 -233 -32 -3 -33 -3 0 -74 0 -74 33 -3 32 -3 3 -278
2 -278 258 3 c241 3 260 4 297 24 54 29 94 70 116 119 17 37 19 73 19 434 0
273 -4 406 -12 433 -16 53 -78 122 -130 144 -37 16 -78 19 -295 22 l-253 4 -2
-234z m404 25 c17 -15 18 -40 18 -389 l0 -373 -26 -20 c-20 -15 -41 -21 -80
-21 -52 0 -53 1 -59 33 -3 17 -5 104 -3 192 l3 160 43 3 42 3 0 70 0 69 -40 0
-40 0 0 145 0 145 62 0 c43 0 67 -5 80 -17z"/>
<path d="M7095 16778 c-2 -7 -50 -265 -105 -573 -56 -308 -103 -568 -106 -577
-5 -17 6 -18 125 -18 128 0 131 1 131 22 0 12 5 61 11 110 l12 88 102 0 103 0
6 -82 c4 -46 9 -95 12 -110 l6 -28 145 0 145 0 -5 23 c-3 12 -51 254 -107 537
-55 283 -105 539 -111 568 l-10 52 -175 0 c-131 0 -176 -3 -179 -12z m195
-200 c12 -88 56 -555 53 -560 -2 -5 -38 -8 -79 -8 -68 0 -74 2 -74 21 0 21 55
457 65 517 4 19 12 32 20 32 8 0 15 -1 15 -2z"/>
<path d="M7760 16200 l0 -590 130 0 130 0 0 590 0 590 -130 0 -130 0 0 -590z"/>
<path d="M8460 16200 l0 -590 135 0 135 0 2 253 3 252 78 3 77 3 0 -256 0
-255 137 0 136 0 -6 437 c-4 240 -7 505 -7 590 l0 153 -130 0 -130 0 0 -220 0
-220 -80 0 -80 0 0 220 0 220 -135 0 -135 0 0 -590z"/>
<path d="M7140 15405 l0 -75 125 0 125 0 0 75 0 75 -125 0 -125 0 0 -75z"/>
<path d="M9520 15405 l0 -75 125 0 125 0 0 75 0 75 -125 0 -125 0 0 -75z"/>
<path d="M2559 2993 c-23 -71 -44 -134 -47 -141 -3 -10 19 -12 104 -10 l108 3
93 130 c51 72 92 133 93 138 0 4 -69 7 -154 7 l-154 0 -43 -127z"/>
<path d="M910 1835 l0 -887 353 4 c340 4 354 5 410 27 70 28 153 105 187 176
25 49 25 54 25 316 l0 266 -29 42 c-31 45 -99 91 -134 91 -32 0 -35 17 -4 23
46 9 108 62 133 114 23 45 24 58 24 238 0 210 -5 238 -61 321 -37 55 -94 100
-164 130 -41 17 -78 19 -392 22 l-348 3 0 -886z m559 570 c45 -23 53 -57 49
-205 l-3 -132 -33 -29 c-30 -27 -39 -29 -107 -29 l-75 0 0 205 0 205 70 0 c43
0 82 -6 99 -15z m26 -697 c48 -22 55 -51 55 -243 l0 -177 -29 -29 c-28 -28
-33 -29 -125 -29 l-96 0 0 245 0 245 85 0 c46 0 96 -5 110 -12z"/>
<path d="M3755 2703 c-155 -33 -287 -128 -347 -251 l-33 -67 0 -565 0 -565 31
-65 c52 -109 143 -187 283 -238 89 -33 247 -41 345 -18 154 36 284 132 342
251 29 59 29 63 32 258 l4 197 -196 0 -196 0 0 -171 c0 -143 -3 -176 -17 -200
-34 -57 -115 -73 -172 -33 -50 35 -51 47 -51 572 0 269 3 504 6 521 15 72 103
117 169 85 57 -26 65 -55 65 -218 l0 -146 200 0 200 0 -1 63 c0 34 -4 114 -8
177 -10 139 -33 194 -120 280 -129 128 -329 178 -536 133z"/>
<path d="M9231 2705 c-139 -26 -275 -111 -339 -212 -61 -97 -62 -105 -62 -673
0 -568 1 -576 62 -673 60 -94 186 -177 318 -208 76 -18 221 -15 300 5 141 38
269 135 324 248 l28 57 -1 555 c-2 581 -2 581 -46 666 -25 48 -93 119 -152
156 -116 75 -288 107 -432 79z m188 -304 c50 -32 51 -43 51 -581 0 -553 0
-552 -62 -590 -39 -24 -78 -26 -118 -5 -62 32 -60 8 -60 591 0 530 0 531 22
559 41 53 109 63 167 26z"/>
<path d="M2376 2683 c-13 -63 -316 -1732 -316 -1742 0 -8 54 -11 193 -9 l192
3 22 165 c12 91 22 166 22 168 1 1 67 1 149 0 l147 -3 17 -160 c9 -88 17 -163
17 -167 1 -5 98 -8 216 -8 165 0 215 3 215 13 1 6 -75 407 -167 889 l-168 878
-267 0 -266 0 -6 -27z m340 -708 c22 -231 39 -423 37 -427 -5 -10 -233 -11
-233 -2 0 15 101 802 106 827 5 22 11 27 27 25 21 -3 23 -15 63 -423z"/>
<path d="M10300 2707 c0 -2 -72 -399 -160 -882 -88 -483 -160 -882 -160 -887
0 -7 379 -13 381 -5 0 1 10 76 22 167 l22 165 153 3 152 3 0 -23 c0 -13 7 -86
15 -163 8 -77 15 -143 15 -147 0 -7 440 -12 440 -5 0 2 -76 399 -170 883 -93
483 -170 882 -170 887 0 4 -121 7 -270 7 -148 0 -270 -2 -270 -3z m333 -699
c21 -216 41 -410 44 -430 l6 -38 -122 0 c-114 0 -121 1 -121 20 0 11 25 202
55 425 30 224 55 408 55 411 0 2 10 4 23 4 23 0 23 -1 60 -392z"/>
<path d="M4590 1815 l0 -885 205 0 205 0 0 380 0 380 115 0 115 0 2 -377 3
-378 198 -3 197 -2 0 885 0 885 -195 0 -195 0 -2 -327 -3 -328 -117 -3 -118
-3 0 331 0 330 -205 0 -205 0 0 -885z"/>
<path d="M6370 1825 l0 -875 190 0 190 0 0 235 0 236 48 74 c26 41 49 75 52
75 3 0 46 -138 95 -308 l90 -307 213 -3 c116 -1 212 0 212 4 0 3 -77 241 -171
527 l-171 521 67 136 c38 74 114 231 171 348 l103 212 -217 0 -217 0 -130
-350 c-71 -192 -133 -350 -137 -350 -5 0 -8 158 -8 350 l0 350 -190 0 -190 0
0 -875z"/>
<path d="M7600 1815 l0 -885 205 0 205 0 0 380 0 380 120 0 120 0 0 -380 0
-380 193 0 194 0 6 647 c4 355 7 754 7 885 l0 238 -200 0 -200 0 0 -330 0
-330 -120 0 -120 0 0 330 0 330 -205 0 -205 0 0 -885z"/>
</g>
</svg>
