<svg xmlns="http://www.w3.org/2000/svg" width="1200" height="1800" viewBox="0 0 1200 1800" version="1.1"><path d="M 231.954 156.773 L 220.408 192.500 181.954 193 L 143.500 193.500 151 199.046 C 155.125 202.096, 168.963 212.160, 181.750 221.410 C 194.537 230.660, 205 238.565, 205 238.975 C 205 239.386, 199.846 255.631, 193.546 275.074 C 187.247 294.518, 182.245 310.578, 182.432 310.765 C 182.618 310.951, 196.125 301.381, 212.447 289.497 C 228.769 277.613, 242.682 267.675, 243.366 267.413 C 244.049 267.151, 258.256 276.866, 274.936 289.003 C 291.616 301.139, 305.408 310.925, 305.584 310.749 C 305.760 310.573, 300.990 295.370, 294.982 276.964 C 288.975 258.559, 283.798 242.316, 283.477 240.869 C 282.929 238.397, 284.426 237.128, 308.197 219.931 C 322.113 209.863, 335.975 199.797, 339 197.563 L 344.500 193.500 306.035 193 L 267.571 192.500 256.035 156.759 C 249.691 137.101, 244.275 121.024, 244 121.032 C 243.725 121.040, 238.304 137.123, 231.954 156.773 M 609.430 144 C 609.430 156.925, 609.573 162.213, 609.747 155.750 C 609.921 149.287, 609.921 138.712, 609.747 132.250 C 609.573 125.787, 609.430 131.075, 609.430 144 M 775.469 180 C 775.469 212.725, 775.595 226.112, 775.749 209.750 C 775.904 193.387, 775.904 166.612, 775.749 150.250 C 775.595 133.887, 775.469 147.275, 775.469 180 M 802.469 180 C 802.469 212.725, 802.595 226.112, 802.749 209.750 C 802.904 193.387, 802.904 166.612, 802.749 150.250 C 802.595 133.887, 802.469 147.275, 802.469 180 M 888.428 143 C 888.428 155.375, 888.571 160.438, 888.747 154.250 C 888.922 148.063, 888.922 137.938, 888.747 131.750 C 888.571 125.563, 888.428 130.625, 888.428 143 M 915.382 132.500 C 915.384 139.100, 915.546 141.670, 915.741 138.211 C 915.937 134.752, 915.936 129.352, 915.738 126.211 C 915.540 123.070, 915.380 125.900, 915.382 132.500 M 679.451 181 C 679.451 200.525, 679.585 208.513, 679.748 198.750 C 679.912 188.988, 679.912 173.013, 679.748 163.250 C 679.585 153.488, 679.451 161.475, 679.451 181 M 929.449 179.500 C 929.449 198.200, 929.584 205.709, 929.749 196.186 C 929.913 186.663, 929.913 171.363, 929.748 162.186 C 929.583 153.009, 929.449 160.800, 929.449 179.500 M 1038.449 179.500 C 1038.449 198.200, 1038.584 205.709, 1038.749 196.186 C 1038.913 186.663, 1038.913 171.363, 1038.748 162.186 C 1038.583 153.009, 1038.449 160.800, 1038.449 179.500 M 609.440 211.500 C 609.440 226.900, 609.579 233.060, 609.748 225.189 C 609.917 217.319, 609.917 204.719, 609.747 197.189 C 609.578 189.660, 609.439 196.100, 609.440 211.500 M 877.776 188.733 C 880.128 188.945, 883.728 188.942, 885.776 188.727 C 887.824 188.512, 885.900 188.339, 881.500 188.343 C 877.100 188.346, 875.424 188.522, 877.776 188.733 M 1081.378 203 C 1081.378 209.325, 1081.541 211.912, 1081.739 208.750 C 1081.937 205.588, 1081.937 200.412, 1081.739 197.250 C 1081.541 194.088, 1081.378 196.675, 1081.378 203 M 886.033 327.601 C 875.369 330.467, 865.100 339.288, 860.160 349.825 C 857.785 354.892, 857.500 356.679, 857.500 366.500 C 857.500 376.643, 857.729 377.967, 860.439 383.500 C 864.189 391.157, 871.843 398.811, 879.500 402.561 C 885.033 405.271, 886.357 405.500, 896.500 405.500 C 906.341 405.500, 908.102 405.218, 913.218 402.820 C 924.142 397.700, 932.530 387.742, 935.489 376.380 C 943.283 346.456, 916.001 319.547, 886.033 327.601 M 668.978 466.657 C 351.961 672.493, 231 751.190, 231 751.605 C 231 752.174, 248.797 743.203, 381 675.989 C 445.075 643.413, 554.650 587.747, 624.500 552.286 C 694.350 516.826, 762.413 482.253, 775.750 475.458 C 789.087 468.663, 800 463.258, 800 463.446 C 800 463.635, 755.173 551.699, 700.386 659.145 C 645.598 766.590, 587.715 880.150, 571.758 911.500 C 555.801 942.850, 532.510 988.525, 519.999 1013 C 492.884 1066.049, 487.491 1076.827, 488.725 1075.500 C 489.237 1074.950, 502.861 1053.800, 519 1028.500 C 535.139 1003.200, 630.166 854.814, 730.172 698.753 C 830.177 542.692, 912 414.856, 912 414.673 C 912 414.490, 908.962 414.975, 905.250 415.750 C 879.181 421.194, 851.822 402.066, 846.964 375 C 845.764 368.311, 846.284 358.015, 848.057 353.350 C 848.606 351.905, 848.921 350.588, 848.756 350.423 C 848.591 350.258, 767.691 402.563, 668.978 466.657 M 458.750 813.741 L 436 814.038 436 836.407 L 436 858.777 432.250 859.474 C 424.620 860.891, 404.136 868.336, 392.262 874.006 C 368.884 885.171, 349.648 898.410, 332.353 915.237 L 322.198 925.117 302.554 913.904 C 290.991 907.304, 282.548 903.063, 282.032 903.596 C 280.764 904.904, 232.885 988.221, 233.219 988.538 C 233.374 988.684, 241.825 993.603, 252 999.470 C 262.175 1005.337, 270.888 1010.517, 271.362 1010.981 C 271.843 1011.451, 270.859 1017.503, 269.138 1024.662 C 264.063 1045.768, 262.713 1059.394, 263.308 1083.500 C 263.843 1105.195, 265.009 1114.480, 269.514 1132.943 C 271.528 1141.197, 271.794 1143.544, 270.781 1144.143 C 270.077 1144.559, 261.400 1149.615, 251.500 1155.378 C 241.600 1161.140, 233.633 1166.398, 233.795 1167.062 C 234.077 1168.219, 279.074 1246.705, 281.458 1250.199 C 282.499 1251.725, 284.395 1250.872, 300.059 1241.832 C 323.859 1228.095, 321.350 1228.880, 325.595 1233.840 C 331.556 1240.804, 350.791 1256.746, 363.448 1265.212 C 382.723 1278.106, 409.444 1290.137, 431.750 1295.966 L 436 1297.077 436 1319.039 L 436 1341 486 1341 L 536 1341 536 1319.664 L 536 1298.328 546.250 1295.583 C 582.814 1285.791, 616.923 1266.390, 645 1239.415 L 653.500 1231.249 671.406 1241.635 C 681.254 1247.348, 689.424 1251.904, 689.562 1251.761 C 690.337 1250.952, 737.971 1168.037, 738.211 1167.078 C 738.370 1166.444, 730.625 1161.377, 721 1155.820 C 711.375 1150.262, 703.444 1145.667, 703.376 1145.608 C 703.308 1145.548, 704.728 1139.650, 706.532 1132.500 C 715.155 1098.325, 715.343 1058.793, 707.047 1024.500 C 705.451 1017.900, 703.877 1011.812, 703.550 1010.971 C 703.102 1009.817, 707.383 1006.914, 720.978 999.151 C 730.890 993.490, 739 988.647, 739 988.387 C 739 987.733, 690.989 904.702, 690.008 903.659 C 689.573 903.196, 680.957 907.575, 670.861 913.390 L 652.504 923.963 644.502 916.147 C 636.724 908.549, 629.396 902.237, 621.776 896.571 L 618.052 893.802 611.012 904.651 L 603.972 915.500 606.337 917.500 C 607.638 918.600, 611.942 922.165, 615.901 925.421 C 649.567 953.116, 673.827 994.405, 683.725 1040.854 C 686.225 1052.584, 686.423 1055.275, 686.460 1078 C 686.495 1099.634, 686.234 1103.813, 684.224 1113.727 C 675.519 1156.672, 656.658 1191.704, 626.380 1221.168 C 579.886 1266.411, 512.595 1285.949, 448 1272.960 C 365.667 1256.404, 302.324 1188.458, 290.554 1104.073 C 288.768 1091.265, 288.520 1067.342, 290.045 1054.974 C 298.153 989.228, 337.656 931.897, 396 901.199 C 414.927 891.240, 432.559 885.454, 456.500 881.345 C 470.251 878.985, 473.206 878.811, 492 879.262 C 518.371 879.894, 538.484 883.719, 559.901 892.177 C 563.971 893.784, 567.633 894.739, 568.038 894.299 C 568.444 893.860, 571.325 888.691, 574.442 882.814 C 579.855 872.607, 580.019 872.081, 578.125 871.067 C 573.372 868.523, 559.580 863.635, 548.500 860.567 L 536.500 857.244 536 835.372 L 535.500 813.500 508.500 813.472 C 493.650 813.457, 471.262 813.578, 458.750 813.741 M 552.821 1431.749 C 568.398 1431.905, 593.598 1431.904, 608.821 1431.749 C 624.044 1431.594, 611.300 1431.467, 580.500 1431.467 C 549.700 1431.467, 537.244 1431.594, 552.821 1431.749 M 10 1615.484 L 10 1791 599.503 1791 L 1189.006 1791 1188.753 1615.750 L 1188.500 1440.500 859 1440.244 C 500.118 1439.966, 519.309 1439.679, 507.402 1445.504 C 499.020 1449.605, 491.583 1457.027, 487.524 1465.342 C 483.882 1472.803, 481.059 1482.252, 480.917 1487.460 C 480.855 1489.719, 480.477 1489.029, 479.445 1484.773 C 474.469 1464.247, 458.683 1450.305, 432 1442.872 L 423.500 1440.504 216.750 1440.236 L 10 1439.968 10 1615.484 M 259.095 1490.250 C 258.625 1491.487, 256.795 1497.182, 255.030 1502.904 C 253.264 1508.626, 251.587 1513.913, 251.303 1514.654 C 250.888 1515.733, 252.939 1515.989, 261.643 1515.947 L 272.500 1515.894 282.189 1501.947 L 291.878 1488 275.914 1488 C 260.279 1488, 259.933 1488.046, 259.095 1490.250 M 91 1616.558 L 91 1705.117 126.250 1704.796 C 159.936 1704.490, 161.744 1704.377, 167 1702.258 C 173.602 1699.596, 178.993 1695.324, 182.880 1689.673 C 188.346 1681.729, 188.894 1678.406, 189.073 1652.138 C 189.236 1628.105, 189.233 1628.074, 186.722 1623.788 C 183.372 1618.073, 181.237 1616.280, 174.541 1613.558 C 169.263 1611.413, 169.084 1611.233, 171.704 1610.707 C 178.182 1609.405, 184.927 1602.524, 186.984 1595.118 C 187.537 1593.128, 187.991 1584.228, 187.994 1575.339 C 187.999 1562.418, 187.630 1557.988, 186.152 1553.240 C 183.656 1545.222, 178.909 1538.621, 172.674 1534.501 C 163.666 1528.547, 159.507 1528, 123.290 1528 L 91 1528 91 1616.558 M 375 1529.554 C 360.505 1532.664, 345.943 1543.309, 340.207 1554.989 L 337.500 1560.500 337.500 1618 L 337.500 1675.500 340.216 1681.296 C 344.071 1689.523, 352.742 1697.853, 362.023 1702.244 C 371.903 1706.918, 378.613 1708.405, 389.500 1708.333 C 410.652 1708.192, 428.525 1698.581, 437.125 1682.723 L 440.500 1676.500 440.824 1656.250 L 441.147 1636 421.637 1636 L 402.126 1636 401.813 1653.937 L 401.500 1671.874 398.609 1674.888 C 397.020 1676.546, 394.434 1678.185, 392.863 1678.530 C 388.988 1679.381, 383.464 1677.405, 381.016 1674.293 C 379.052 1671.796, 379 1670.354, 379 1618.381 L 379 1565.032 381.782 1561.917 C 383.901 1559.546, 385.656 1558.680, 389.136 1558.288 C 394.587 1557.674, 397.401 1558.970, 400.050 1563.314 C 401.741 1566.088, 401.993 1568.409, 401.996 1581.271 L 402 1596.042 421.750 1595.771 L 441.500 1595.500 441.801 1585 C 442.425 1563.238, 439.336 1553.035, 429.092 1543.011 C 416.131 1530.330, 395.410 1525.175, 375 1529.554 M 921.500 1529.657 C 905.999 1532.964, 892.830 1542.505, 886.768 1554.820 L 883.500 1561.458 883.500 1618.479 L 883.500 1675.500 886.653 1681.500 C 905.145 1716.689, 965.845 1716.489, 983.232 1681.182 L 986.500 1674.546 986.797 1623.023 C 987.115 1567.796, 986.769 1562.424, 982.326 1553.657 C 974.901 1539.004, 954.102 1527.889, 934.500 1528.099 C 931.200 1528.134, 925.350 1528.835, 921.500 1529.657 M 237.078 1534.250 C 234.880 1545.101, 206 1704.393, 206 1705.668 C 206 1706.731, 209.899 1707, 225.335 1707 L 244.670 1707 246.369 1692.750 C 247.303 1684.912, 248.313 1677.263, 248.613 1675.750 L 249.159 1673 263.500 1673 L 277.841 1673 278.369 1675.750 C 278.660 1677.263, 279.448 1684.912, 280.121 1692.750 L 281.344 1707 303.578 1707 C 324.242 1707, 325.784 1706.876, 325.407 1705.250 C 324.471 1701.210, 292 1530.830, 292 1529.957 C 292 1529.371, 281.546 1529, 265.071 1529 L 238.142 1529 237.078 1534.250 M 637 1616.978 L 637 1705 656 1705 L 675 1705 675 1681.554 L 675 1658.107 679.956 1650.372 C 684.614 1643.101, 684.965 1642.783, 685.796 1645.069 C 686.282 1646.406, 690.455 1660.438, 695.070 1676.250 L 703.460 1705 724.730 1705 C 736.428 1705, 746 1704.746, 746 1704.437 C 746 1704.127, 738.315 1680.343, 728.923 1651.584 L 711.847 1599.295 728.288 1566.398 C 737.331 1548.304, 745.049 1532.479, 745.438 1531.230 L 746.147 1528.961 724.414 1529.230 L 702.681 1529.500 689.591 1564.448 L 676.500 1599.397 676 1564.448 L 675.500 1529.500 656.250 1529.228 L 637 1528.957 637 1616.978 M 1029.078 1534.250 C 1026.880 1545.101, 998 1704.393, 998 1705.668 C 998 1706.731, 1001.843 1707, 1017 1707 C 1027.450 1707, 1036.034 1706.888, 1036.076 1706.750 C 1036.118 1706.612, 1037.131 1699.075, 1038.326 1690 L 1040.500 1673.500 1055.500 1673.500 L 1070.500 1673.500 1072.158 1690 C 1073.070 1699.075, 1073.858 1706.612, 1073.908 1706.750 C 1074.109 1707.298, 1118 1706.960, 1118 1706.411 C 1118 1706.087, 1110.350 1666.289, 1101 1617.971 C 1091.650 1569.653, 1084 1529.868, 1084 1529.560 C 1084 1529.252, 1071.882 1529, 1057.071 1529 L 1030.142 1529 1029.078 1534.250 M 459 1618.500 L 459 1707 479.500 1707 L 500 1707 500 1669 L 500 1631 511.500 1631 L 523 1631 523 1669 L 523 1707 543 1707 L 563 1707 563.002 1653.750 C 563.002 1624.463, 563.300 1584.638, 563.664 1565.250 L 564.324 1530 543.662 1530 L 523 1530 523 1563 L 523 1596 511.500 1596 L 500 1596 500 1563 L 500 1530 479.500 1530 L 459 1530 459 1618.500 M 760 1618.500 L 760 1707 780.500 1707 L 801 1707 801 1669 L 801 1631 812.500 1631 L 824 1631 824 1669 L 824 1707 843.839 1707 L 863.677 1707 864.339 1676.837 C 864.702 1660.248, 865 1620.423, 865 1588.337 L 865 1530 845.014 1530 L 825.027 1530 824.764 1562.750 L 824.500 1595.500 813 1595.500 L 801.500 1595.500 801.236 1562.750 L 800.973 1530 780.486 1530 L 760 1530 760 1618.500 M 926.766 1560.917 L 923.500 1563.835 923.224 1616.918 C 922.918 1675.961, 922.736 1674.223, 929.572 1677.467 C 935.782 1680.414, 942.967 1677.716, 945.584 1671.454 C 947.632 1666.552, 947.680 1569.563, 945.636 1564.672 C 943.795 1560.264, 940.033 1558, 934.551 1558 C 930.971 1558, 929.353 1558.606, 926.766 1560.917 M 130 1579 L 130 1599 137.484 1599 C 144.338 1599, 145.243 1598.755, 148.234 1596.085 L 151.500 1593.169 151.823 1579.248 C 152.143 1565.420, 152.127 1565.305, 149.484 1562.163 C 146.884 1559.074, 146.626 1559, 138.411 1559 L 130 1559 130 1579 M 262.655 1563.196 C 262.331 1565.013, 260.027 1582.700, 257.534 1602.500 C 255.041 1622.300, 252.737 1640.188, 252.413 1642.250 L 251.824 1646 263.353 1646 C 269.694 1646, 275.057 1645.662, 275.272 1645.250 C 275.486 1644.838, 273.825 1625.600, 271.581 1602.500 C 267.637 1561.907, 267.429 1560.490, 265.371 1560.196 C 263.658 1559.952, 263.128 1560.538, 262.655 1563.196 M 1054.970 1561.250 C 1054.953 1561.938, 1052.515 1580.941, 1049.552 1603.479 C 1046.589 1626.017, 1044.379 1644.805, 1044.641 1645.229 C 1044.904 1645.653, 1050.324 1646, 1056.687 1646 L 1068.256 1646 1067.696 1642.250 C 1067.387 1640.188, 1065.436 1620.838, 1063.358 1599.250 C 1059.591 1560.109, 1059.574 1560, 1057.290 1560 C 1056.031 1560, 1054.986 1560.563, 1054.970 1561.250 M 130 1652.500 L 130 1677 139.577 1677 C 148.829 1677, 149.253 1676.901, 152.077 1674.077 L 155 1671.154 155 1652.977 L 155 1634.800 151.600 1631.400 C 148.232 1628.032, 148.116 1628, 139.100 1628 L 130 1628 130 1652.500" stroke="none" fill="#f3c202" fill-rule="evenodd"/><path d="M 1 900 L 1 1800 600 1800 L 1199 1800 1199 900 L 1199 0 600 0 L 1 0 1 900 M 481 293.059 C 481 519.232, 481.251 575.970, 482.250 575.382 C 484.089 574.299, 602.029 497.671, 744.500 404.992 C 813.250 360.269, 872.875 322.071, 877 320.107 C 883.777 316.880, 885.484 316.499, 894.703 316.156 C 902.949 315.849, 906.218 316.175, 911.745 317.854 C 932.895 324.278, 947 343.205, 947 365.161 C 947 374.939, 945.440 380.792, 940.614 389.121 C 938.263 393.180, 886.164 474.800, 824.840 570.500 C 763.515 666.200, 691.909 778.025, 665.716 819 C 639.523 859.975, 614.156 899.575, 609.345 907 C 570.233 967.366, 493.888 1087.205, 488.131 1097.271 L 481 1109.738 481 1193.369 L 481 1277 478.750 1276.983 C 477.512 1276.973, 472.450 1276.537, 467.500 1276.014 C 375.974 1266.339, 303.342 1195.761, 290.554 1104.073 C 288.768 1091.265, 288.520 1067.342, 290.045 1054.974 C 299.891 975.141, 356.190 908.557, 432.473 886.527 C 443.611 883.310, 468.282 879, 475.556 879 L 480.990 879 481.245 971.948 L 481.500 1064.896 517.457 994.698 C 537.233 956.089, 561.843 907.850, 572.144 887.500 C 582.446 867.150, 632.489 769.050, 683.350 669.500 C 734.212 569.950, 775.710 488.383, 775.569 488.240 C 775.428 488.097, 709.205 521.459, 628.406 562.379 L 481.500 636.778 481.245 725.389 L 480.989 814 458.495 814 L 436 814 436 836.389 L 436 858.777 432.250 859.474 C 424.620 860.891, 404.136 868.336, 392.262 874.006 C 368.884 885.171, 349.648 898.410, 332.353 915.237 L 322.198 925.117 302.554 913.904 C 290.991 907.304, 282.548 903.063, 282.032 903.596 C 280.764 904.904, 232.885 988.221, 233.219 988.538 C 233.374 988.684, 241.825 993.603, 252 999.470 C 262.175 1005.337, 270.888 1010.517, 271.362 1010.981 C 271.843 1011.451, 270.859 1017.503, 269.138 1024.662 C 264.063 1045.768, 262.713 1059.394, 263.308 1083.500 C 263.843 1105.195, 265.009 1114.480, 269.514 1132.943 C 271.528 1141.197, 271.794 1143.544, 270.781 1144.143 C 270.077 1144.559, 261.400 1149.615, 251.500 1155.378 C 241.600 1161.140, 233.633 1166.398, 233.795 1167.062 C 234.077 1168.219, 279.074 1246.705, 281.458 1250.199 C 282.499 1251.725, 284.395 1250.872, 300.059 1241.832 C 323.859 1228.095, 321.350 1228.880, 325.595 1233.840 C 331.556 1240.804, 350.791 1256.746, 363.448 1265.212 C 382.723 1278.106, 409.444 1290.137, 431.750 1295.966 L 436 1297.077 436 1319.039 L 436 1341 458.500 1341 L 481 1341 481.009 1400.250 L 481.019 1459.500 484.057 1454.203 C 488.191 1446.993, 493.775 1441.647, 500.961 1438.020 C 514.218 1431.328, 485.037 1431.884, 854.250 1431.285 L 1189 1430.742 1189 720.371 L 1189 10 835 10 L 481 10 481 293.059 M 951.500 119.981 C 943.237 122.711, 936.243 128.278, 932.800 134.868 L 930 140.228 930 178.918 L 930 217.607 932.595 222.814 C 935.511 228.667, 941.268 233.859, 948.580 237.231 C 952.750 239.154, 955.177 239.500, 964.500 239.500 C 974.532 239.500, 976.054 239.244, 981.791 236.595 C 989.251 233.150, 997.010 225.248, 998.800 219.272 C 999.640 216.470, 999.997 204.198, 999.990 178.384 C 999.981 141.660, 999.970 141.478, 997.610 136.500 C 994.531 130.007, 988.975 124.782, 981.500 121.350 C 973.401 117.631, 960.409 117.039, 951.500 119.981 M 1035.024 119.539 C 1024.294 122.549, 1015.875 129.517, 1012.604 138.096 C 1011.119 141.992, 1010.958 146.885, 1011.212 180.500 C 1011.480 215.914, 1011.634 218.769, 1013.462 222.457 C 1016.163 227.903, 1022.099 233.409, 1028.839 236.720 C 1034.033 239.271, 1035.448 239.500, 1046 239.500 C 1056.298 239.500, 1058.080 239.228, 1063.046 236.899 C 1070.510 233.398, 1075.346 228.954, 1078.433 222.759 C 1080.787 218.034, 1081 216.546, 1081 204.804 L 1081 192 1068 192 L 1055 192 1055 203.545 C 1055 214.470, 1054.868 215.223, 1052.545 217.545 C 1049.178 220.913, 1044.156 220.859, 1040.924 217.421 L 1038.500 214.842 1038.198 182.171 C 1038.032 164.202, 1038.169 148.012, 1038.504 146.194 C 1039.296 141.885, 1042.270 139, 1045.918 139 C 1053.091 139, 1055 142.353, 1055 154.950 L 1055 164 1068 164 L 1081 164 1081 152.316 C 1081 142.528, 1080.663 139.934, 1078.921 136.338 C 1076.091 130.491, 1068.108 123.562, 1061.202 120.957 C 1053.727 118.138, 1042.236 117.515, 1035.024 119.539 M 231.954 156.773 L 220.408 192.500 181.954 193 L 143.500 193.500 151 199.046 C 155.125 202.096, 168.963 212.160, 181.750 221.410 C 194.537 230.660, 205 238.565, 205 238.975 C 205 239.386, 199.846 255.631, 193.546 275.074 C 187.247 294.518, 182.245 310.578, 182.432 310.765 C 182.618 310.951, 196.125 301.381, 212.447 289.497 C 228.769 277.613, 242.682 267.675, 243.366 267.413 C 244.049 267.151, 258.256 276.866, 274.936 289.003 C 291.616 301.139, 305.408 310.925, 305.584 310.749 C 305.760 310.573, 300.990 295.370, 294.982 276.964 C 288.975 258.559, 283.798 242.316, 283.477 240.869 C 282.929 238.397, 284.426 237.128, 308.197 219.931 C 322.113 209.863, 335.975 199.797, 339 197.563 L 344.500 193.500 306.035 193 L 267.571 192.500 256.035 156.759 C 249.691 137.101, 244.275 121.024, 244 121.032 C 243.725 121.040, 238.304 137.123, 231.954 156.773 M 609.769 144.175 L 609.500 167.500 606.250 167.813 L 603 168.127 603 176.063 L 603 184 606.500 184 L 610 184 610 211.500 L 610 239 634.374 239 C 660.638 239, 664.058 238.481, 670.578 233.508 C 672.346 232.160, 674.965 228.705, 676.397 225.832 L 679 220.607 678.994 181.054 C 678.991 156.254, 678.593 140.075, 677.928 137.679 C 676.618 132.962, 670.979 126.574, 665.568 123.678 C 661.745 121.631, 659.949 121.480, 635.769 121.175 L 610.037 120.851 609.769 144.175 M 699.125 178.125 C 693.418 209.540, 688.528 236.089, 688.258 237.122 C 687.796 238.888, 688.540 239, 700.750 239 L 713.733 239 715 228 L 716.267 217 726.505 217 L 736.742 217 737.426 226.250 C 738.462 240.261, 736.866 239, 753.567 239 C 761.505 239, 768 238.804, 768 238.564 C 768 237.935, 745.981 125.936, 745.329 123.250 C 744.789 121.022, 744.609 121, 727.142 121.003 L 709.500 121.007 699.125 178.125 M 776 180 L 776 239 789 239 L 802 239 802 180 L 802 121 789 121 L 776 121 776 180 M 845.667 121.667 C 845.300 122.033, 845 148.583, 845 180.667 L 845 239 859.500 239 L 874 239 874 213.500 L 874 188 881.500 188 L 889 188 889 213.500 L 889 239 902.500 239 L 916 239 915.997 197.250 C 915.995 174.287, 915.699 147.738, 915.340 138.250 L 914.685 121 901.843 121 L 889 121 889 143 L 889 165 881 165 L 873 165 873 143 L 873 121 859.667 121 C 852.333 121, 846.033 121.300, 845.667 121.667 M 958.073 141.635 C 956.067 144.185, 956 145.382, 956 178.701 C 956 213.820, 956.200 215.867, 959.913 218.718 C 961.637 220.041, 965.874 220.369, 968.455 219.379 C 972.666 217.763, 973 214.776, 973 178.685 C 973 145.382, 972.933 144.185, 970.927 141.635 C 969.255 139.509, 968.014 139, 964.500 139 C 960.986 139, 959.745 139.509, 958.073 141.635 M 636 155 L 636 169 640.544 169 L 645.088 169 644.794 176.250 L 644.500 183.500 640.250 183.807 L 636 184.115 636 203.057 L 636 222 641.365 222 C 645.279 222, 647.443 221.439, 649.365 219.927 L 652 217.855 652 180.627 C 652 153.006, 651.690 143.090, 650.800 142.200 C 650.102 141.502, 646.756 141, 642.800 141 L 636 141 636 155 M 725.570 145.750 C 724.504 152.348, 719.013 195.434, 719.006 197.250 C 719.001 198.760, 720.019 199, 726.441 199 C 730.534 199, 734.060 198.662, 734.278 198.250 C 734.495 197.838, 733.428 185.350, 731.906 170.500 C 730.384 155.650, 729.108 143.162, 729.070 142.750 C 729.031 142.338, 728.365 142, 727.588 142 C 726.731 142, 725.938 143.473, 725.570 145.750 M 714 259.500 L 714 267 727 267 L 740 267 740 259.500 L 740 252 727 252 L 714 252 714 259.500 M 952 259.500 L 952 267 965 267 L 978 267 978 259.500 L 978 252 965 252 L 952 252 952 259.500 M 886.033 327.601 C 875.369 330.467, 865.100 339.288, 860.160 349.825 C 857.785 354.892, 857.500 356.679, 857.500 366.500 C 857.500 376.643, 857.729 377.967, 860.439 383.500 C 864.189 391.157, 871.843 398.811, 879.500 402.561 C 885.033 405.271, 886.357 405.500, 896.500 405.500 C 906.341 405.500, 908.102 405.218, 913.218 402.820 C 924.142 397.700, 932.530 387.742, 935.489 376.380 C 943.283 346.456, 916.001 319.547, 886.033 327.601 M 668.978 466.657 C 351.961 672.493, 231 751.190, 231 751.605 C 231 752.174, 248.797 743.203, 381 675.989 C 445.075 643.413, 554.650 587.747, 624.500 552.286 C 694.350 516.826, 762.413 482.253, 775.750 475.458 C 789.087 468.663, 800 463.258, 800 463.446 C 800 463.635, 755.173 551.699, 700.386 659.145 C 645.598 766.590, 587.715 880.150, 571.758 911.500 C 555.801 942.850, 532.510 988.525, 519.999 1013 C 492.884 1066.049, 487.491 1076.827, 488.725 1075.500 C 489.237 1074.950, 502.861 1053.800, 519 1028.500 C 535.139 1003.200, 630.166 854.814, 730.172 698.753 C 830.177 542.692, 912 414.856, 912 414.673 C 912 414.490, 908.962 414.975, 905.250 415.750 C 879.181 421.194, 851.822 402.066, 846.964 375 C 845.764 368.311, 846.284 358.015, 848.057 353.350 C 848.606 351.905, 848.921 350.588, 848.756 350.423 C 848.591 350.258, 767.691 402.563, 668.978 466.657 M 10 1615.484 L 10 1791 599.503 1791 L 1189.006 1791 1188.753 1615.750 L 1188.500 1440.500 859 1440.244 C 500.118 1439.966, 519.309 1439.679, 507.402 1445.504 C 499.020 1449.605, 491.583 1457.027, 487.524 1465.342 C 483.882 1472.803, 481.059 1482.252, 480.917 1487.460 C 480.855 1489.719, 480.477 1489.029, 479.445 1484.773 C 474.469 1464.247, 458.683 1450.305, 432 1442.872 L 423.500 1440.504 216.750 1440.236 L 10 1439.968 10 1615.484 M 259.095 1490.250 C 258.625 1491.487, 256.795 1497.182, 255.030 1502.904 C 253.264 1508.626, 251.587 1513.913, 251.303 1514.654 C 250.888 1515.733, 252.939 1515.989, 261.643 1515.947 L 272.500 1515.894 282.189 1501.947 L 291.878 1488 275.914 1488 C 260.279 1488, 259.933 1488.046, 259.095 1490.250 M 91 1616.558 L 91 1705.117 126.250 1704.796 C 159.936 1704.490, 161.744 1704.377, 167 1702.258 C 173.602 1699.596, 178.993 1695.324, 182.880 1689.673 C 188.346 1681.729, 188.894 1678.406, 189.073 1652.138 C 189.236 1628.105, 189.233 1628.074, 186.722 1623.788 C 183.372 1618.073, 181.237 1616.280, 174.541 1613.558 C 169.263 1611.413, 169.084 1611.233, 171.704 1610.707 C 178.182 1609.405, 184.927 1602.524, 186.984 1595.118 C 187.537 1593.128, 187.991 1584.228, 187.994 1575.339 C 187.999 1562.418, 187.630 1557.988, 186.152 1553.240 C 183.656 1545.222, 178.909 1538.621, 172.674 1534.501 C 163.666 1528.547, 159.507 1528, 123.290 1528 L 91 1528 91 1616.558 M 375 1529.554 C 360.505 1532.664, 345.943 1543.309, 340.207 1554.989 L 337.500 1560.500 337.500 1618 L 337.500 1675.500 340.216 1681.296 C 344.071 1689.523, 352.742 1697.853, 362.023 1702.244 C 371.903 1706.918, 378.613 1708.405, 389.500 1708.333 C 410.652 1708.192, 428.525 1698.581, 437.125 1682.723 L 440.500 1676.500 440.824 1656.250 L 441.147 1636 421.637 1636 L 402.126 1636 401.813 1653.937 L 401.500 1671.874 398.609 1674.888 C 397.020 1676.546, 394.434 1678.185, 392.863 1678.530 C 388.988 1679.381, 383.464 1677.405, 381.016 1674.293 C 379.052 1671.796, 379 1670.354, 379 1618.381 L 379 1565.032 381.782 1561.917 C 383.901 1559.546, 385.656 1558.680, 389.136 1558.288 C 394.587 1557.674, 397.401 1558.970, 400.050 1563.314 C 401.741 1566.088, 401.993 1568.409, 401.996 1581.271 L 402 1596.042 421.750 1595.771 L 441.500 1595.500 441.801 1585 C 442.425 1563.238, 439.336 1553.035, 429.092 1543.011 C 416.131 1530.330, 395.410 1525.175, 375 1529.554 M 921.500 1529.657 C 905.999 1532.964, 892.830 1542.505, 886.768 1554.820 L 883.500 1561.458 883.500 1618.479 L 883.500 1675.500 886.653 1681.500 C 905.145 1716.689, 965.845 1716.489, 983.232 1681.182 L 986.500 1674.546 986.797 1623.023 C 987.115 1567.796, 986.769 1562.424, 982.326 1553.657 C 974.901 1539.004, 954.102 1527.889, 934.500 1528.099 C 931.200 1528.134, 925.350 1528.835, 921.500 1529.657 M 237.078 1534.250 C 234.880 1545.101, 206 1704.393, 206 1705.668 C 206 1706.731, 209.899 1707, 225.335 1707 L 244.670 1707 246.369 1692.750 C 247.303 1684.912, 248.313 1677.263, 248.613 1675.750 L 249.159 1673 263.500 1673 L 277.841 1673 278.369 1675.750 C 278.660 1677.263, 279.448 1684.912, 280.121 1692.750 L 281.344 1707 303.578 1707 C 324.242 1707, 325.784 1706.876, 325.407 1705.250 C 324.471 1701.210, 292 1530.830, 292 1529.957 C 292 1529.371, 281.546 1529, 265.071 1529 L 238.142 1529 237.078 1534.250 M 637 1616.978 L 637 1705 656 1705 L 675 1705 675 1681.554 L 675 1658.107 679.956 1650.372 C 684.614 1643.101, 684.965 1642.783, 685.796 1645.069 C 686.282 1646.406, 690.455 1660.438, 695.070 1676.250 L 703.460 1705 724.730 1705 C 736.428 1705, 746 1704.746, 746 1704.437 C 746 1704.127, 738.315 1680.343, 728.923 1651.584 L 711.847 1599.295 728.288 1566.398 C 737.331 1548.304, 745.049 1532.479, 745.438 1531.230 L 746.147 1528.961 724.414 1529.230 L 702.681 1529.500 689.591 1564.448 L 676.500 1599.397 676 1564.448 L 675.500 1529.500 656.250 1529.228 L 637 1528.957 637 1616.978 M 1029.078 1534.250 C 1026.880 1545.101, 998 1704.393, 998 1705.668 C 998 1706.731, 1001.843 1707, 1017 1707 C 1027.450 1707, 1036.034 1706.888, 1036.076 1706.750 C 1036.118 1706.612, 1037.131 1699.075, 1038.326 1690 L 1040.500 1673.500 1055.500 1673.500 L 1070.500 1673.500 1072.158 1690 C 1073.070 1699.075, 1073.858 1706.612, 1073.908 1706.750 C 1074.109 1707.298, 1118 1706.960, 1118 1706.411 C 1118 1706.087, 1110.350 1666.289, 1101 1617.971 C 1091.650 1569.653, 1084 1529.868, 1084 1529.560 C 1084 1529.252, 1071.882 1529, 1057.071 1529 L 1030.142 1529 1029.078 1534.250 M 459 1618.500 L 459 1707 479.500 1707 L 500 1707 500 1669 L 500 1631 511.500 1631 L 523 1631 523 1669 L 523 1707 543 1707 L 563 1707 563.002 1653.750 C 563.002 1624.463, 563.300 1584.638, 563.664 1565.250 L 564.324 1530 543.662 1530 L 523 1530 523 1563 L 523 1596 511.500 1596 L 500 1596 500 1563 L 500 1530 479.500 1530 L 459 1530 459 1618.500 M 760 1618.500 L 760 1707 780.500 1707 L 801 1707 801 1669 L 801 1631 812.500 1631 L 824 1631 824 1669 L 824 1707 843.839 1707 L 863.677 1707 864.339 1676.837 C 864.702 1660.248, 865 1620.423, 865 1588.337 L 865 1530 845.014 1530 L 825.027 1530 824.764 1562.750 L 824.500 1595.500 813 1595.500 L 801.500 1595.500 801.236 1562.750 L 800.973 1530 780.486 1530 L 760 1530 760 1618.500 M 926.766 1560.917 L 923.500 1563.835 923.224 1616.918 C 922.918 1675.961, 922.736 1674.223, 929.572 1677.467 C 935.782 1680.414, 942.967 1677.716, 945.584 1671.454 C 947.632 1666.552, 947.680 1569.563, 945.636 1564.672 C 943.795 1560.264, 940.033 1558, 934.551 1558 C 930.971 1558, 929.353 1558.606, 926.766 1560.917 M 130 1579 L 130 1599 137.484 1599 C 144.338 1599, 145.243 1598.755, 148.234 1596.085 L 151.500 1593.169 151.823 1579.248 C 152.143 1565.420, 152.127 1565.305, 149.484 1562.163 C 146.884 1559.074, 146.626 1559, 138.411 1559 L 130 1559 130 1579 M 262.655 1563.196 C 262.331 1565.013, 260.027 1582.700, 257.534 1602.500 C 255.041 1622.300, 252.737 1640.188, 252.413 1642.250 L 251.824 1646 263.353 1646 C 269.694 1646, 275.057 1645.662, 275.272 1645.250 C 275.486 1644.838, 273.825 1625.600, 271.581 1602.500 C 267.637 1561.907, 267.429 1560.490, 265.371 1560.196 C 263.658 1559.952, 263.128 1560.538, 262.655 1563.196 M 1054.970 1561.250 C 1054.953 1561.938, 1052.515 1580.941, 1049.552 1603.479 C 1046.589 1626.017, 1044.379 1644.805, 1044.641 1645.229 C 1044.904 1645.653, 1050.324 1646, 1056.687 1646 L 1068.256 1646 1067.696 1642.250 C 1067.387 1640.188, 1065.436 1620.838, 1063.358 1599.250 C 1059.591 1560.109, 1059.574 1560, 1057.290 1560 C 1056.031 1560, 1054.986 1560.563, 1054.970 1561.250 M 130 1652.500 L 130 1677 139.577 1677 C 148.829 1677, 149.253 1676.901, 152.077 1674.077 L 155 1671.154 155 1652.977 L 155 1634.800 151.600 1631.400 C 148.232 1628.032, 148.116 1628, 139.100 1628 L 130 1628 130 1652.500" stroke="none" fill="#cc0c24" fill-rule="evenodd"/><path d="M 481 293.115 L 481 576.230 483.750 574.420 C 485.262 573.425, 538.700 538.662, 602.500 497.170 C 666.300 455.677, 753.150 399.193, 795.500 371.649 C 837.850 344.105, 874.975 320.572, 878 319.352 C 890.517 314.306, 903.811 314.195, 916.091 319.036 C 936.716 327.166, 950.099 350.125, 946.993 372.051 C 945.854 380.084, 944.237 384.056, 938.107 393.870 C 935.485 398.067, 862.703 511.750, 776.367 646.500 C 690.032 781.250, 619.093 891.999, 618.725 892.610 C 618.333 893.259, 621.468 896.358, 626.278 900.077 C 630.800 903.574, 638.573 910.366, 643.550 915.171 L 652.601 923.908 670.909 913.362 C 680.978 907.562, 689.573 903.196, 690.008 903.659 C 690.989 904.702, 739 987.733, 739 988.387 C 739 988.647, 730.890 993.490, 720.978 999.151 C 707.383 1006.914, 703.102 1009.817, 703.550 1010.971 C 705.418 1015.776, 710.171 1038.204, 711.500 1048.491 C 713.530 1064.195, 713.500 1090.825, 711.435 1106.879 C 710.543 1113.821, 708.336 1125.350, 706.532 1132.500 C 704.728 1139.650, 703.308 1145.548, 703.376 1145.608 C 703.444 1145.667, 711.375 1150.262, 721 1155.820 C 730.625 1161.377, 738.370 1166.444, 738.211 1167.078 C 737.971 1168.037, 690.337 1250.952, 689.562 1251.761 C 689.424 1251.904, 681.254 1247.348, 671.406 1241.635 L 653.500 1231.249 645 1239.415 C 616.923 1266.390, 582.814 1285.791, 546.250 1295.583 L 536 1298.328 536 1319.664 L 536 1341 508.500 1341 L 481 1341 481.018 1400.250 L 481.036 1459.500 484.013 1454 C 489.297 1444.238, 498.516 1437.327, 511.554 1433.352 C 517.237 1431.620, 532.379 1431.527, 853.250 1431.257 L 1189 1430.974 1189 720.487 L 1189 10 835 10 L 481 10 481 293.115 M 952.500 119.345 C 942.827 122.535, 936.224 127.757, 932.186 135.410 L 929.500 140.500 929.500 179 C 929.500 217.195, 929.518 217.537, 931.808 222.186 C 937.976 234.708, 954.611 242.433, 970.267 240.046 C 983.029 238.100, 992.918 231.819, 997.410 222.805 L 1000 217.607 999.978 179.054 C 999.958 143.414, 999.813 140.185, 998.067 136.339 C 995.466 130.610, 989.409 124.836, 982.407 121.410 C 977.295 118.910, 975.214 118.500, 966.513 118.279 C 960.238 118.120, 955.006 118.518, 952.500 119.345 M 1035.746 119.086 C 1026.270 121.319, 1015.706 129.673, 1012.424 137.528 C 1011.276 140.275, 1011 148.370, 1011 179.272 L 1011 217.607 1013.595 222.814 C 1017.991 231.636, 1027.259 237.725, 1039.685 239.955 C 1055.272 242.751, 1073.063 234.743, 1079.158 222.186 C 1081.066 218.255, 1081.497 215.445, 1081.834 204.750 L 1082.236 192 1068.618 192 L 1055 192 1055 202.566 C 1055 213.104, 1054.223 216.310, 1051.087 218.718 C 1048.668 220.575, 1044.565 220.232, 1041.635 217.927 L 1039 215.855 1039 179.602 L 1039 143.349 1041.314 141.174 C 1044.505 138.177, 1049.037 138.347, 1052.076 141.578 C 1054.243 143.883, 1054.536 145.209, 1054.844 154.078 L 1055.187 164 1068.094 164 L 1081 164 1081.175 156.250 C 1081.455 143.873, 1081.046 140.823, 1078.354 135.213 C 1072.229 122.450, 1052.753 115.077, 1035.746 119.086 M 609 144.439 L 609 168 606 168 L 603 168 603 176 L 603 184 606 184 L 609 184 609 211.546 L 609 239.092 635.831 238.796 L 662.663 238.500 667.550 235.476 C 673.932 231.529, 677.727 225.976, 679.074 218.615 C 679.758 214.876, 680.033 199.554, 679.826 176.615 C 679.518 142.476, 679.386 140.253, 677.412 135.989 C 674.896 130.554, 670.488 125.964, 665.320 123.397 C 661.917 121.707, 658.632 121.466, 635.250 121.189 L 609 120.879 609 144.439 M 709 121.863 C 709 122.337, 704.275 148.628, 698.500 180.287 C 692.725 211.946, 688 238.108, 688 238.425 C 688 238.741, 693.798 239, 700.884 239 L 713.767 239 715.148 228.250 L 716.530 217.500 726.515 217.500 L 736.500 217.500 737.373 228.250 L 738.246 239 753.123 239 C 762.602 239, 768 238.629, 768 237.976 C 768 236.720, 746.112 125.193, 745.385 122.750 C 744.915 121.168, 743.146 121, 726.933 121 C 717.070 121, 709 121.388, 709 121.863 M 775 180 L 775 239 789 239 L 803 239 803 180 L 803 121 789 121 L 775 121 775 180 M 845 180 L 845 239 859.500 239 L 874 239 874 214 L 874 189 881.500 189 L 889 189 889 214 L 889 239 902.500 239 L 916 239 916 180 L 916 121 902 121 L 888 121 888 143 L 888 165 880.500 165 L 873 165 873 143 L 873 121 859 121 L 845 121 845 180 M 958.861 140.912 L 956.500 142.823 956.500 178.831 L 956.500 214.839 958.924 217.419 C 960.536 219.135, 962.405 220, 964.500 220 C 966.595 220, 968.464 219.135, 970.076 217.419 L 972.500 214.839 972.500 178.831 L 972.500 142.823 970.139 140.912 C 968.841 139.860, 966.303 139, 964.500 139 C 962.697 139, 960.159 139.860, 958.861 140.912 M 636 155 L 636 169 640.500 169 L 645 169 645 175.418 C 645 184.175, 644.560 185, 639.893 185 L 636 185 636 203 L 636 221 642.443 221 C 652.480 221, 652 223.025, 652 180.712 C 652 157.916, 651.623 144.164, 650.965 142.934 C 650.093 141.306, 648.827 141, 642.965 141 L 636 141 636 155 M 725.998 142.750 C 725.997 143.162, 724.422 155.634, 722.498 170.464 C 720.574 185.294, 719 197.781, 719 198.214 C 719 198.646, 722.375 199, 726.500 199 L 734 199 733.991 196.250 C 733.987 194.738, 732.870 182.475, 731.510 169 C 730.150 155.525, 729.029 143.938, 729.019 143.250 C 728.999 141.941, 726.002 141.445, 725.998 142.750 M 714 259.500 L 714 267 727 267 L 740 267 740 259.500 L 740 252 727 252 L 714 252 714 259.500 M 952 259.500 L 952 267 965 267 L 978 267 978 259.500 L 978 252 965 252 L 952 252 952 259.500 M 628.500 562.475 L 481.500 636.903 481.245 724.936 L 480.989 812.968 508.245 813.234 L 535.500 813.500 536 835.372 L 536.500 857.244 548.500 860.541 C 555.100 862.354, 564.872 865.606, 570.215 867.766 L 579.930 871.695 672.600 690.097 C 723.569 590.219, 767.720 503.887, 770.713 498.250 C 773.706 492.613, 776.008 488.011, 775.828 488.024 C 775.647 488.037, 709.350 521.540, 628.500 562.475 M 481.050 972.108 L 481.100 1065.500 485.186 1057.500 C 487.433 1053.100, 506.986 1014.888, 528.637 972.584 C 550.288 930.281, 567.889 895.557, 567.751 895.421 C 566.848 894.531, 550.980 888.822, 543.500 886.697 C 527.150 882.050, 513.290 879.848, 496.750 879.268 L 481 878.716 481.050 972.108 M 550.093 999.496 C 520.719 1045.386, 493.156 1089.021, 488.843 1096.461 L 481 1109.990 481 1193.652 L 481 1277.313 496.328 1276.681 C 545.306 1274.660, 591.807 1254.811, 626.380 1221.168 C 656.658 1191.704, 675.519 1156.672, 684.224 1113.727 C 686.234 1103.813, 686.495 1099.634, 686.460 1078 C 686.423 1055.275, 686.225 1052.584, 683.725 1040.854 C 674.895 999.419, 656.728 965.487, 628.092 936.946 C 618.525 927.411, 605.178 915.906, 603.826 916.030 C 603.647 916.046, 579.467 953.606, 550.093 999.496" stroke="none" fill="#fbfbfb" fill-rule="evenodd"/></svg>